<svg width="60" height="50" viewBox="0 0 289 181" fill="none" xmlns="http://www.w3.org/2000/svg">
<path fill-rule="evenodd" clip-rule="evenodd" d="M136.584 180.049C143.94 180.058 148.785 172.391 145.622 165.75L82.6521 33.56C79.0359 25.9688 68.2358 25.9562 64.6048 33.539L1.37593 165.582C-1.8004 172.215 3.0305 179.894 10.3855 179.902L16.9895 179.91C20.8424 179.914 24.3548 177.705 26.0187 174.23L64.5462 93.7718C68.1772 86.189 78.9773 86.2016 82.5935 93.7928L120.963 174.341C122.62 177.819 126.128 180.037 129.981 180.041L136.584 180.049Z" fill="url(#paint0_linear_8_24)"/>
<path d="M173.672 121.152C166.504 121.152 160.019 119.701 154.216 116.8C148.499 113.899 144.019 109.888 140.776 104.768C137.533 99.648 135.912 93.8453 135.912 87.36V41.92C135.912 37.824 137.363 34.7093 140.264 32.576C143.165 30.3573 147.432 29.248 153.064 29.248V87.36C153.064 93.0773 154.941 97.6427 158.696 101.056C162.451 104.469 167.443 106.176 173.672 106.176C179.901 106.176 184.893 104.469 188.648 101.056C192.403 97.6427 194.28 93.0773 194.28 87.36V41.92C194.28 37.7387 195.731 34.5813 198.632 32.448C201.533 30.3147 205.8 29.248 211.432 29.248V87.36C211.432 93.8453 209.811 99.648 206.568 104.768C203.325 109.888 198.803 113.899 193 116.8C187.283 119.701 180.84 121.152 173.672 121.152Z" fill="url(#paint1_linear_8_24)"/>
<path d="M213.552 38.208C213.552 35.9893 214.363 34.1547 215.984 32.704C217.605 31.168 219.653 30.4 222.128 30.4H257.712C263.856 30.4 269.275 31.6373 273.968 34.112C278.747 36.5013 282.416 39.9573 284.976 44.48C287.621 48.9173 288.944 54.08 288.944 59.968C288.944 65.9413 287.664 71.1893 285.104 75.712C282.544 80.1493 278.917 83.6053 274.224 86.08C269.531 88.4693 264.027 89.664 257.712 89.664H230.704V108.48C230.704 112.576 229.211 115.733 226.224 117.952C223.323 120.085 219.099 121.152 213.552 121.152V38.208ZM257.712 74.816C262.235 74.816 265.733 73.4933 268.208 70.848C270.683 68.2027 271.92 64.5333 271.92 59.84C271.92 55.232 270.64 51.648 268.08 49.088C265.605 46.528 262.149 45.248 257.712 45.248H230.704V74.816H257.712Z" fill="url(#paint2_linear_8_24)"/>
<defs>
<linearGradient id="paint0_linear_8_24" x1="73.634" y1="27.8592" x2="73.4567" y2="179.976" gradientUnits="userSpaceOnUse">
<stop stop-color="#E95B92"/>
<stop offset="1" stop-color="#C6A764"/>
</linearGradient>
<linearGradient id="paint1_linear_8_24" x1="177.5" y1="0" x2="177.5" y2="138.541" gradientUnits="userSpaceOnUse">
<stop stop-color="#6D6BF9"/>
<stop offset="1" stop-color="#E95B92"/>
</linearGradient>
<linearGradient id="paint2_linear_8_24" x1="245.5" y1="0" x2="245.5" y2="138.541" gradientUnits="userSpaceOnUse">
<stop stop-color="#6D6BF9"/>
<stop offset="1" stop-color="#E95B92"/>
</linearGradient>
</defs>
</svg>
