<svg xmlns="http://www.w3.org/2000/svg" width="72" height="78" fill="none" viewBox="0 0 72 78"><g filter="url(#a)"><path fill="url(#b)" d="M21 19.8a3.6 3.6 0 0 1 3.6-3.6h22.8a3.6 3.6 0 0 1 3.6 3.6v31.8a3.6 3.6 0 0 1-3.6 3.6H24.6a3.6 3.6 0 0 1-3.6-3.6V19.8Z"/><path fill="#fff" fill-rule="evenodd" d="M47.4 17.4H24.6a2.4 2.4 0 0 0-2.4 2.4v31.8a2.4 2.4 0 0 0 2.4 2.4h22.8a2.4 2.4 0 0 0 2.4-2.4V19.8a2.4 2.4 0 0 0-2.4-2.4Zm-22.8-1.2a3.6 3.6 0 0 0-3.6 3.6v31.8a3.6 3.6 0 0 0 3.6 3.6h22.8a3.6 3.6 0 0 0 3.6-3.6V19.8a3.6 3.6 0 0 0-3.6-3.6H24.6Z" clip-rule="evenodd"/><path fill="url(#c)" fill-rule="evenodd" d="M47.4 16.8H24.6a3 3 0 0 0-3 3v31.8a3 3 0 0 0 3 3h22.8a3 3 0 0 0 3-3V19.8a3 3 0 0 0-3-3Zm-22.8-.6a3.6 3.6 0 0 0-3.6 3.6v31.8a3.6 3.6 0 0 0 3.6 3.6h22.8a3.6 3.6 0 0 0 3.6-3.6V19.8a3.6 3.6 0 0 0-3.6-3.6H24.6Z" clip-rule="evenodd"/><path fill="#BDBEC2" fill-rule="evenodd" d="M28.067 40.2c-.59 0-1.067.478-1.067 1.067v2.666c0 .59.478 1.067 1.067 1.067h2.666c.59 0 1.067-.478 1.067-1.067v-2.666c0-.59-.478-1.067-1.067-1.067h-2.666Zm2.253 1.316a.421.421 0 0 1 .603 0 .436.436 0 0 1 0 .61l-1.527 1.558a.421.421 0 0 1-.603 0l-.917-.935a.436.436 0 0 1 0-.61.421.421 0 0 1 .604 0l.614.628 1.226-1.25ZM28.067 33.6c-.59 0-1.067.478-1.067 1.067v2.666c0 .59.478 1.067 1.067 1.067h2.666c.59 0 1.067-.478 1.067-1.067v-2.666c0-.59-.478-1.067-1.067-1.067h-2.666Zm2.253 1.316a.421.421 0 0 1 .603 0 .436.436 0 0 1 0 .61l-1.527 1.558a.421.421 0 0 1-.603 0l-.917-.936a.436.436 0 0 1 0-.608.421.421 0 0 1 .604 0l.614.627 1.226-1.25ZM28.067 27c-.59 0-1.067.478-1.067 1.067v2.666c0 .59.478 1.067 1.067 1.067h2.666c.59 0 1.067-.478 1.067-1.067v-2.666c0-.59-.478-1.067-1.067-1.067h-2.666Zm2.253 1.316a.421.421 0 0 1 .603 0 .436.436 0 0 1 0 .61l-1.527 1.558a.421.421 0 0 1-.603 0l-.917-.936a.436.436 0 0 1 0-.608.421.421 0 0 1 .604 0l.614.627 1.226-1.25Z" clip-rule="evenodd"/><path fill="#BDBEC2" d="M33.6 42.18c0-.43.35-.78.78-.78h9.84c.43 0 .78.35.78.78v.84c0 .43-.35.78-.78.78h-9.84a.78.78 0 0 1-.78-.78v-.84Zm0-13.2c0-.43.35-.78.78-.78h9.84c.43 0 .78.35.78.78v.84c0 .43-.35.78-.78.78h-9.84a.78.78 0 0 1-.78-.78v-.84ZM45 36.42c0 .43-.35.78-.78.78h-9.84a.78.78 0 0 1-.78-.78v-.84c0-.43.35-.78.78-.78h9.84c.43 0 .78.35.78.78v.84Z"/><path fill="#262A33" d="M55.8 54a6 6 0 1 1-12 0 6 6 0 0 1 12 0Z"/><path fill="url(#d)" fill-rule="evenodd" d="M49.8 59.4a5.4 5.4 0 1 0 0-10.8 5.4 5.4 0 0 0 0 10.8Zm0 .6a6 6 0 1 0 0-12 6 6 0 0 0 0 12Z" clip-rule="evenodd"/><path fill="#fff" d="M52.247 52.105a1.591 1.591 0 0 0-2.293 0 .213.213 0 0 1-.305 0 1.591 1.591 0 0 0-2.293 0 1.697 1.697 0 0 0 0 2.355l2.167 2.226a.389.389 0 0 0 .557 0l2.167-2.226a1.697 1.697 0 0 0 0-2.355Z"/></g><defs><filter id="a" width="92" height="92" x="-10" y="-2" color-interpolation-filters="sRGB" filterUnits="userSpaceOnUse"><feFlood flood-opacity="0" result="BackgroundImageFix"/><feColorMatrix in="SourceAlpha" result="hardAlpha" values="0 0 0 0 0 0 0 0 0 0 0 0 0 0 0 0 0 0 127 0"/><feOffset dy="8"/><feGaussianBlur stdDeviation="5"/><feComposite in2="hardAlpha" operator="out"/><feColorMatrix values="0 0 0 0 0.34902 0 0 0 0 0.364706 0 0 0 0 0.4 0 0 0 0.2 0"/><feBlend in2="BackgroundImageFix" result="effect1_dropShadow_7857_11447"/><feBlend in="SourceGraphic" in2="effect1_dropShadow_7857_11447" result="shape"/></filter><linearGradient id="b" x1="30.474" x2="31.018" y1="54.3" y2="7.96" gradientUnits="userSpaceOnUse"><stop stop-color="#fff"/><stop offset="1" stop-color="#EEEFF0"/></linearGradient><linearGradient id="c" x1="36" x2="36" y1="16.2" y2="55.2" gradientUnits="userSpaceOnUse"><stop stop-color="#DEDFE0"/><stop offset="1" stop-color="#EEEFF0"/></linearGradient><linearGradient id="d" x1="49.8" x2="49.8" y1="48" y2="60" gradientUnits="userSpaceOnUse"><stop stop-color="#595D66"/><stop offset="1" stop-color="#1D2026"/></linearGradient></defs></svg>